<mxfile host="app.diagrams.net">
  <diagram name="KanbanTask Model Table ERD" id="kanbanTask-model-table-erd">
    <mxGraphModel dx="692" dy="402" grid="1" gridSize="10" guides="1" tooltips="1" connect="1" arrows="1" fold="1" page="1" pageScale="1" pageWidth="1200" pageHeight="1169" math="0" shadow="0">
      <root>
        <mxCell id="0" />
        <mxCell id="1" parent="0" />
        <!-- Tiêu đề lớn -->
        <mxCell id="bigTitle" value="KANBANTASK MODEL - ERD TABLE" style="text;html=1;strokeColor=none;fillColor=none;align=center;fontSize=24;fontStyle=1;fontColor=#4472C4;" parent="1" vertex="1">
          <mxGeometry x="50" y="20" width="1100" height="50" as="geometry" />
        </mxCell>
        <!-- Bảng ERD -->
        <mxCell id="kanbanTaskTable" value="" style="shape=table;startSize=0;container=1;collapsible=0;childLayout=tableLayout;fixedRows=1;rowLines=0;fontStyle=1;align=center;resizeLast=1;strokeColor=#000000;fillColor=#ffffff;" parent="1" vertex="1">
          <mxGeometry x="50" y="80" width="1100" height="600" as="geometry" />
        </mxCell>
        <!-- Header -->
        <mxCell id="header" value="" style="shape=tableRow;horizontal=0;fillColor=#4472C4;strokeColor=#000000;" parent="kanbanTaskTable" vertex="1">
          <mxGeometry width="1100" height="40" as="geometry" />
        </mxCell>
        <mxCell id="h1" value="Tên trường" style="shape=partialRectangle;connectable=0;fillColor=#4472C4;align=center;fontStyle=1;fontSize=12;fontColor=#ffffff;" parent="header" vertex="1"><mxGeometry width="160" height="40" as="geometry" /></mxCell>
        <mxCell id="h2" value="Kiểu dữ liệu" style="shape=partialRectangle;connectable=0;fillColor=#4472C4;align=center;fontStyle=1;fontSize=12;fontColor=#ffffff;" parent="header" vertex="1"><mxGeometry x="160" width="120" height="40" as="geometry" /></mxCell>
        <mxCell id="h3" value="Ràng buộc/Enum" style="shape=partialRectangle;connectable=0;fillColor=#4472C4;align=center;fontStyle=1;fontSize=12;fontColor=#ffffff;" parent="header" vertex="1"><mxGeometry x="280" width="250" height="40" as="geometry" /></mxCell>
        <mxCell id="h4" value="Giá trị mặc định" style="shape=partialRectangle;connectable=0;fillColor=#4472C4;align=center;fontStyle=1;fontSize=12;fontColor=#ffffff;" parent="header" vertex="1"><mxGeometry x="530" width="140" height="40" as="geometry" /></mxCell>
        <mxCell id="h5" value="Mô tả" style="shape=partialRectangle;connectable=0;fillColor=#4472C4;align=center;fontStyle=1;fontSize=12;fontColor=#ffffff;" parent="header" vertex="1"><mxGeometry x="670" width="430" height="40" as="geometry" /></mxCell>
        <!-- Data Rows -->
        <mxCell id="row1" value="" style="shape=tableRow;horizontal=0;fillColor=#FFE6CC;strokeColor=#000000;" parent="kanbanTaskTable" vertex="1"><mxGeometry y="40" width="1100" height="30" as="geometry" /></mxCell>
        <mxCell id="r1c1" value="_id" style="shape=partialRectangle;connectable=0;fillColor=#FFE6CC;align=left;fontStyle=1;" parent="row1" vertex="1"><mxGeometry width="160" height="30" as="geometry" /></mxCell>
        <mxCell id="r1c2" value="ObjectId" style="shape=partialRectangle;connectable=0;fillColor=#FFE6CC;align=left;" parent="row1" vertex="1"><mxGeometry x="160" width="120" height="30" as="geometry" /></mxCell>
        <mxCell id="r1c3" value="Primary Key" style="shape=partialRectangle;connectable=0;fillColor=#FFE6CC;align=left;" parent="row1" vertex="1"><mxGeometry x="280" width="250" height="30" as="geometry" /></mxCell>
        <mxCell id="r1c4" value="Tự động" style="shape=partialRectangle;connectable=0;fillColor=#FFE6CC;align=left;" parent="row1" vertex="1"><mxGeometry x="530" width="140" height="30" as="geometry" /></mxCell>
        <mxCell id="r1c5" value="Khóa chính MongoDB" style="shape=partialRectangle;connectable=0;fillColor=#FFE6CC;align=left;" parent="row1" vertex="1"><mxGeometry x="670" width="430" height="30" as="geometry" /></mxCell>
        <mxCell id="row2" value="" style="shape=tableRow;horizontal=0;fillColor=#ffffff;strokeColor=#000000;" parent="kanbanTaskTable" vertex="1"><mxGeometry y="70" width="1100" height="30" as="geometry" /></mxCell>
        <mxCell id="r2c1" value="kanban_id" style="shape=partialRectangle;connectable=0;fillColor=#ffffff;align=left;" parent="row2" vertex="1"><mxGeometry width="160" height="30" as="geometry" /></mxCell>
        <mxCell id="r2c2" value="ObjectId" style="shape=partialRectangle;connectable=0;fillColor=#ffffff;align=left;" parent="row2" vertex="1"><mxGeometry x="160" width="120" height="30" as="geometry" /></mxCell>
        <mxCell id="r2c3" value="ref: Kanban, required" style="shape=partialRectangle;connectable=0;fillColor=#ffffff;align=left;" parent="row2" vertex="1"><mxGeometry x="280" width="250" height="30" as="geometry" /></mxCell>
        <mxCell id="r2c4" value="" style="shape=partialRectangle;connectable=0;fillColor=#ffffff;align=left;" parent="row2" vertex="1"><mxGeometry x="530" width="140" height="30" as="geometry" /></mxCell>
        <mxCell id="r2c5" value="Bảng Kanban liên kết" style="shape=partialRectangle;connectable=0;fillColor=#ffffff;align=left;" parent="row2" vertex="1"><mxGeometry x="670" width="430" height="30" as="geometry" /></mxCell>
        <mxCell id="row3" value="" style="shape=tableRow;horizontal=0;fillColor=#E6F3FF;strokeColor=#000000;" parent="kanbanTaskTable" vertex="1"><mxGeometry y="100" width="1100" height="30" as="geometry" /></mxCell>
        <mxCell id="r3c1" value="title" style="shape=partialRectangle;connectable=0;fillColor=#E6F3FF;align=left;" parent="row3" vertex="1"><mxGeometry width="160" height="30" as="geometry" /></mxCell>
        <mxCell id="r3c2" value="String" style="shape=partialRectangle;connectable=0;fillColor=#E6F3FF;align=left;" parent="row3" vertex="1"><mxGeometry x="160" width="120" height="30" as="geometry" /></mxCell>
        <mxCell id="r3c3" value="required" style="shape=partialRectangle;connectable=0;fillColor=#E6F3FF;align=left;" parent="row3" vertex="1"><mxGeometry x="280" width="250" height="30" as="geometry" /></mxCell>
        <mxCell id="r3c4" value="" style="shape=partialRectangle;connectable=0;fillColor=#E6F3FF;align=left;" parent="row3" vertex="1"><mxGeometry x="530" width="140" height="30" as="geometry" /></mxCell>
        <mxCell id="r3c5" value="Tiêu đề task" style="shape=partialRectangle;connectable=0;fillColor=#E6F3FF;align=left;" parent="row3" vertex="1"><mxGeometry x="670" width="430" height="30" as="geometry" /></mxCell>
        <mxCell id="row4" value="" style="shape=tableRow;horizontal=0;fillColor=#ffffff;strokeColor=#000000;" parent="kanbanTaskTable" vertex="1"><mxGeometry y="130" width="1100" height="30" as="geometry" /></mxCell>
        <mxCell id="r4c1" value="description" style="shape=partialRectangle;connectable=0;fillColor=#ffffff;align=left;" parent="row4" vertex="1"><mxGeometry width="160" height="30" as="geometry" /></mxCell>
        <mxCell id="r4c2" value="String" style="shape=partialRectangle;connectable=0;fillColor=#ffffff;align=left;" parent="row4" vertex="1"><mxGeometry x="160" width="120" height="30" as="geometry" /></mxCell>
        <mxCell id="r4c3" value="" style="shape=partialRectangle;connectable=0;fillColor=#ffffff;align=left;" parent="row4" vertex="1"><mxGeometry x="280" width="250" height="30" as="geometry" /></mxCell>
        <mxCell id="r4c4" value="" style="shape=partialRectangle;connectable=0;fillColor=#ffffff;align=left;" parent="row4" vertex="1"><mxGeometry x="530" width="140" height="30" as="geometry" /></mxCell>
        <mxCell id="r4c5" value="Mô tả task" style="shape=partialRectangle;connectable=0;fillColor=#ffffff;align=left;" parent="row4" vertex="1"><mxGeometry x="670" width="430" height="30" as="geometry" /></mxCell>
        <mxCell id="row5" value="" style="shape=tableRow;horizontal=0;fillColor=#E6F3FF;strokeColor=#000000;" parent="kanbanTaskTable" vertex="1"><mxGeometry y="160" width="1100" height="30" as="geometry" /></mxCell>
        <mxCell id="r5c1" value="status" style="shape=partialRectangle;connectable=0;fillColor=#E6F3FF;align=left;" parent="row5" vertex="1"><mxGeometry width="160" height="30" as="geometry" /></mxCell>
        <mxCell id="r5c2" value="String" style="shape=partialRectangle;connectable=0;fillColor=#E6F3FF;align=left;" parent="row5" vertex="1"><mxGeometry x="160" width="120" height="30" as="geometry" /></mxCell>
        <mxCell id="r5c3" value="enum: Cần làm, Đang làm, Hoàn thành" style="shape=partialRectangle;connectable=0;fillColor=#E6F3FF;align=left;" parent="row5" vertex="1"><mxGeometry x="280" width="250" height="30" as="geometry" /></mxCell>
        <mxCell id="r5c4" value="Cần làm" style="shape=partialRectangle;connectable=0;fillColor=#E6F3FF;align=left;" parent="row5" vertex="1"><mxGeometry x="530" width="140" height="30" as="geometry" /></mxCell>
        <mxCell id="r5c5" value="Trạng thái task" style="shape=partialRectangle;connectable=0;fillColor=#E6F3FF;align=left;" parent="row5" vertex="1"><mxGeometry x="670" width="430" height="30" as="geometry" /></mxCell>
        <mxCell id="row6" value="" style="shape=tableRow;horizontal=0;fillColor=#ffffff;strokeColor=#000000;" parent="kanbanTaskTable" vertex="1"><mxGeometry y="190" width="1100" height="30" as="geometry" /></mxCell>
        <mxCell id="r6c1" value="order" style="shape=partialRectangle;connectable=0;fillColor=#ffffff;align=left;" parent="row6" vertex="1"><mxGeometry width="160" height="30" as="geometry" /></mxCell>
        <mxCell id="r6c2" value="Number" style="shape=partialRectangle;connectable=0;fillColor=#ffffff;align=left;" parent="row6" vertex="1"><mxGeometry x="160" width="120" height="30" as="geometry" /></mxCell>
        <mxCell id="r6c3" value="required" style="shape=partialRectangle;connectable=0;fillColor=#ffffff;align=left;" parent="row6" vertex="1"><mxGeometry x="280" width="250" height="30" as="geometry" /></mxCell>
        <mxCell id="r6c4" value="" style="shape=partialRectangle;connectable=0;fillColor=#ffffff;align=left;" parent="row6" vertex="1"><mxGeometry x="530" width="140" height="30" as="geometry" /></mxCell>
        <mxCell id="r6c5" value="Thứ tự trong cột" style="shape=partialRectangle;connectable=0;fillColor=#ffffff;align=left;" parent="row6" vertex="1"><mxGeometry x="670" width="430" height="30" as="geometry" /></mxCell>
        <mxCell id="row7" value="" style="shape=tableRow;horizontal=0;fillColor=#E6F3FF;strokeColor=#000000;" parent="kanbanTaskTable" vertex="1"><mxGeometry y="220" width="1100" height="30" as="geometry" /></mxCell>
        <mxCell id="r7c1" value="start_date" style="shape=partialRectangle;connectable=0;fillColor=#E6F3FF;align=left;" parent="row7" vertex="1"><mxGeometry width="160" height="30" as="geometry" /></mxCell>
        <mxCell id="r7c2" value="Date" style="shape=partialRectangle;connectable=0;fillColor=#E6F3FF;align=left;" parent="row7" vertex="1"><mxGeometry x="160" width="120" height="30" as="geometry" /></mxCell>
        <mxCell id="r7c3" value="" style="shape=partialRectangle;connectable=0;fillColor=#E6F3FF;align=left;" parent="row7" vertex="1"><mxGeometry x="280" width="250" height="30" as="geometry" /></mxCell>
        <mxCell id="r7c4" value="" style="shape=partialRectangle;connectable=0;fillColor=#E6F3FF;align=left;" parent="row7" vertex="1"><mxGeometry x="530" width="140" height="30" as="geometry" /></mxCell>
        <mxCell id="r7c5" value="Ngày bắt đầu" style="shape=partialRectangle;connectable=0;fillColor=#E6F3FF;align=left;" parent="row7" vertex="1"><mxGeometry x="670" width="430" height="30" as="geometry" /></mxCell>
        <mxCell id="row8" value="" style="shape=tableRow;horizontal=0;fillColor=#ffffff;strokeColor=#000000;" parent="kanbanTaskTable" vertex="1"><mxGeometry y="250" width="1100" height="30" as="geometry" /></mxCell>
        <mxCell id="r8c1" value="due_date" style="shape=partialRectangle;connectable=0;fillColor=#ffffff;align=left;" parent="row8" vertex="1"><mxGeometry width="160" height="30" as="geometry" /></mxCell>
        <mxCell id="r8c2" value="Date" style="shape=partialRectangle;connectable=0;fillColor=#ffffff;align=left;" parent="row8" vertex="1"><mxGeometry x="160" width="120" height="30" as="geometry" /></mxCell>
        <mxCell id="r8c3" value="" style="shape=partialRectangle;connectable=0;fillColor=#ffffff;align=left;" parent="row8" vertex="1"><mxGeometry x="280" width="250" height="30" as="geometry" /></mxCell>
        <mxCell id="r8c4" value="" style="shape=partialRectangle;connectable=0;fillColor=#ffffff;align=left;" parent="row8" vertex="1"><mxGeometry x="530" width="140" height="30" as="geometry" /></mxCell>
        <mxCell id="r8c5" value="Hạn hoàn thành" style="shape=partialRectangle;connectable=0;fillColor=#ffffff;align=left;" parent="row8" vertex="1"><mxGeometry x="670" width="430" height="30" as="geometry" /></mxCell>
        <mxCell id="row9" value="" style="shape=tableRow;horizontal=0;fillColor=#E6F3FF;strokeColor=#000000;" parent="kanbanTaskTable" vertex="1"><mxGeometry y="280" width="1100" height="30" as="geometry" /></mxCell>
        <mxCell id="r9c1" value="created_by" style="shape=partialRectangle;connectable=0;fillColor=#E6F3FF;align=left;" parent="row9" vertex="1"><mxGeometry width="160" height="30" as="geometry" /></mxCell>
        <mxCell id="r9c2" value="ObjectId" style="shape=partialRectangle;connectable=0;fillColor=#E6F3FF;align=left;" parent="row9" vertex="1"><mxGeometry x="160" width="120" height="30" as="geometry" /></mxCell>
        <mxCell id="r9c3" value="ref: User, required" style="shape=partialRectangle;connectable=0;fillColor=#E6F3FF;align=left;" parent="row9" vertex="1"><mxGeometry x="280" width="250" height="30" as="geometry" /></mxCell>
        <mxCell id="r9c4" value="" style="shape=partialRectangle;connectable=0;fillColor=#E6F3FF;align=left;" parent="row9" vertex="1"><mxGeometry x="530" width="140" height="30" as="geometry" /></mxCell>
        <mxCell id="r9c5" value="Người tạo task" style="shape=partialRectangle;connectable=0;fillColor=#E6F3FF;align=left;" parent="row9" vertex="1"><mxGeometry x="670" width="430" height="30" as="geometry" /></mxCell>
        <mxCell id="row10" value="" style="shape=tableRow;horizontal=0;fillColor=#ffffff;strokeColor=#000000;" parent="kanbanTaskTable" vertex="1"><mxGeometry y="310" width="1100" height="30" as="geometry" /></mxCell>
        <mxCell id="r10c1" value="assigned_to" style="shape=partialRectangle;connectable=0;fillColor=#ffffff;align=left;" parent="row10" vertex="1"><mxGeometry width="160" height="30" as="geometry" /></mxCell>
        <mxCell id="r10c2" value="ObjectId" style="shape=partialRectangle;connectable=0;fillColor=#ffffff;align=left;" parent="row10" vertex="1"><mxGeometry x="160" width="120" height="30" as="geometry" /></mxCell>
        <mxCell id="r10c3" value="ref: User" style="shape=partialRectangle;connectable=0;fillColor=#ffffff;align=left;" parent="row10" vertex="1"><mxGeometry x="280" width="250" height="30" as="geometry" /></mxCell>
        <mxCell id="r10c4" value="" style="shape=partialRectangle;connectable=0;fillColor=#ffffff;align=left;" parent="row10" vertex="1"><mxGeometry x="530" width="140" height="30" as="geometry" /></mxCell>
        <mxCell id="r10c5" value="Người được giao task" style="shape=partialRectangle;connectable=0;fillColor=#ffffff;align=left;" parent="row10" vertex="1"><mxGeometry x="670" width="430" height="30" as="geometry" /></mxCell>
        <mxCell id="row11" value="" style="shape=tableRow;horizontal=0;fillColor=#E6F3FF;strokeColor=#000000;" parent="kanbanTaskTable" vertex="1"><mxGeometry y="340" width="1100" height="30" as="geometry" /></mxCell>
        <mxCell id="r11c1" value="tags" style="shape=partialRectangle;connectable=0;fillColor=#E6F3FF;align=left;" parent="row11" vertex="1"><mxGeometry width="160" height="30" as="geometry" /></mxCell>
        <mxCell id="r11c2" value="Array[ObjectId]" style="shape=partialRectangle;connectable=0;fillColor=#E6F3FF;align=left;" parent="row11" vertex="1"><mxGeometry x="160" width="120" height="30" as="geometry" /></mxCell>
        <mxCell id="r11c3" value="ref: Tag" style="shape=partialRectangle;connectable=0;fillColor=#E6F3FF;align=left;" parent="row11" vertex="1"><mxGeometry x="280" width="250" height="30" as="geometry" /></mxCell>
        <mxCell id="r11c4" value="" style="shape=partialRectangle;connectable=0;fillColor=#E6F3FF;align=left;" parent="row11" vertex="1"><mxGeometry x="530" width="140" height="30" as="geometry" /></mxCell>
        <mxCell id="r11c5" value="Danh sách tag" style="shape=partialRectangle;connectable=0;fillColor=#E6F3FF;align=left;" parent="row11" vertex="1"><mxGeometry x="670" width="430" height="30" as="geometry" /></mxCell>
        <mxCell id="row12" value="" style="shape=tableRow;horizontal=0;fillColor=#ffffff;strokeColor=#000000;" parent="kanbanTaskTable" vertex="1"><mxGeometry y="370" width="1100" height="30" as="geometry" /></mxCell>
        <mxCell id="r12c1" value="priority" style="shape=partialRectangle;connectable=0;fillColor=#ffffff;align=left;" parent="row12" vertex="1"><mxGeometry width="160" height="30" as="geometry" /></mxCell>
        <mxCell id="r12c2" value="String" style="shape=partialRectangle;connectable=0;fillColor=#ffffff;align=left;" parent="row12" vertex="1"><mxGeometry x="160" width="120" height="30" as="geometry" /></mxCell>
        <mxCell id="r12c3" value="enum: Thấp, Trung bình, Cao" style="shape=partialRectangle;connectable=0;fillColor=#ffffff;align=left;" parent="row12" vertex="1"><mxGeometry x="280" width="250" height="30" as="geometry" /></mxCell>
        <mxCell id="r12c4" value="Trung bình" style="shape=partialRectangle;connectable=0;fillColor=#ffffff;align=left;" parent="row12" vertex="1"><mxGeometry x="530" width="140" height="30" as="geometry" /></mxCell>
        <mxCell id="r12c5" value="Mức độ ưu tiên" style="shape=partialRectangle;connectable=0;fillColor=#ffffff;align=left;" parent="row12" vertex="1"><mxGeometry x="670" width="430" height="30" as="geometry" /></mxCell>
        <mxCell id="row13" value="" style="shape=tableRow;horizontal=0;fillColor=#E6F3FF;strokeColor=#000000;" parent="kanbanTaskTable" vertex="1"><mxGeometry y="400" width="1100" height="30" as="geometry" /></mxCell>
        <mxCell id="r13c1" value="color" style="shape=partialRectangle;connectable=0;fillColor=#E6F3FF;align=left;" parent="row13" vertex="1"><mxGeometry width="160" height="30" as="geometry" /></mxCell>
        <mxCell id="r13c2" value="String" style="shape=partialRectangle;connectable=0;fillColor=#E6F3FF;align=left;" parent="row13" vertex="1"><mxGeometry x="160" width="120" height="30" as="geometry" /></mxCell>
        <mxCell id="r13c3" value="" style="shape=partialRectangle;connectable=0;fillColor=#E6F3FF;align=left;" parent="row13" vertex="1"><mxGeometry x="280" width="250" height="30" as="geometry" /></mxCell>
        <mxCell id="r13c4" value="#ffffff" style="shape=partialRectangle;connectable=0;fillColor=#E6F3FF;align=left;" parent="row13" vertex="1"><mxGeometry x="530" width="140" height="30" as="geometry" /></mxCell>
        <mxCell id="r13c5" value="Màu sắc task card" style="shape=partialRectangle;connectable=0;fillColor=#E6F3FF;align=left;" parent="row13" vertex="1"><mxGeometry x="670" width="430" height="30" as="geometry" /></mxCell>
        <mxCell id="row14" value="" style="shape=tableRow;horizontal=0;fillColor=#ffffff;strokeColor=#000000;" parent="kanbanTaskTable" vertex="1"><mxGeometry y="430" width="1100" height="30" as="geometry" /></mxCell>
        <mxCell id="r14c1" value="is_pinned" style="shape=partialRectangle;connectable=0;fillColor=#ffffff;align=left;" parent="row14" vertex="1"><mxGeometry width="160" height="30" as="geometry" /></mxCell>
        <mxCell id="r14c2" value="Boolean" style="shape=partialRectangle;connectable=0;fillColor=#ffffff;align=left;" parent="row14" vertex="1"><mxGeometry x="160" width="120" height="30" as="geometry" /></mxCell>
        <mxCell id="r14c3" value="" style="shape=partialRectangle;connectable=0;fillColor=#ffffff;align=left;" parent="row14" vertex="1"><mxGeometry x="280" width="250" height="30" as="geometry" /></mxCell>
        <mxCell id="r14c4" value="false" style="shape=partialRectangle;connectable=0;fillColor=#ffffff;align=left;" parent="row14" vertex="1"><mxGeometry x="530" width="140" height="30" as="geometry" /></mxCell>
        <mxCell id="r14c5" value="Ghim task lên đầu cột" style="shape=partialRectangle;connectable=0;fillColor=#ffffff;align=left;" parent="row14" vertex="1"><mxGeometry x="670" width="430" height="30" as="geometry" /></mxCell>
        <mxCell id="row15" value="" style="shape=tableRow;horizontal=0;fillColor=#E6F3FF;strokeColor=#000000;" parent="kanbanTaskTable" vertex="1"><mxGeometry y="460" width="1100" height="30" as="geometry" /></mxCell>
        <mxCell id="r15c1" value="documents" style="shape=partialRectangle;connectable=0;fillColor=#E6F3FF;align=left;" parent="row15" vertex="1"><mxGeometry width="160" height="30" as="geometry" /></mxCell>
        <mxCell id="r15c2" value="Array[ObjectId]" style="shape=partialRectangle;connectable=0;fillColor=#E6F3FF;align=left;" parent="row15" vertex="1"><mxGeometry x="160" width="120" height="30" as="geometry" /></mxCell>
        <mxCell id="r15c3" value="ref: Document" style="shape=partialRectangle;connectable=0;fillColor=#E6F3FF;align=left;" parent="row15" vertex="1"><mxGeometry x="280" width="250" height="30" as="geometry" /></mxCell>
        <mxCell id="r15c4" value="" style="shape=partialRectangle;connectable=0;fillColor=#E6F3FF;align=left;" parent="row15" vertex="1"><mxGeometry x="530" width="140" height="30" as="geometry" /></mxCell>
        <mxCell id="r15c5" value="Tài liệu đính kèm" style="shape=partialRectangle;connectable=0;fillColor=#E6F3FF;align=left;" parent="row15" vertex="1"><mxGeometry x="670" width="430" height="30" as="geometry" /></mxCell>
        <mxCell id="row16" value="" style="shape=tableRow;horizontal=0;fillColor=#ffffff;strokeColor=#000000;" parent="kanbanTaskTable" vertex="1"><mxGeometry y="490" width="1100" height="30" as="geometry" /></mxCell>
        <mxCell id="r16c1" value="riskLevel" style="shape=partialRectangle;connectable=0;fillColor=#ffffff;align=left;" parent="row16" vertex="1"><mxGeometry width="160" height="30" as="geometry" /></mxCell>
        <mxCell id="r16c2" value="Number" style="shape=partialRectangle;connectable=0;fillColor=#ffffff;align=left;" parent="row16" vertex="1"><mxGeometry x="160" width="120" height="30" as="geometry" /></mxCell>
        <mxCell id="r16c3" value="" style="shape=partialRectangle;connectable=0;fillColor=#ffffff;align=left;" parent="row16" vertex="1"><mxGeometry x="280" width="250" height="30" as="geometry" /></mxCell>
        <mxCell id="r16c4" value="0" style="shape=partialRectangle;connectable=0;fillColor=#ffffff;align=left;" parent="row16" vertex="1"><mxGeometry x="530" width="140" height="30" as="geometry" /></mxCell>
        <mxCell id="r16c5" value="AI risk level" style="shape=partialRectangle;connectable=0;fillColor=#ffffff;align=left;" parent="row16" vertex="1"><mxGeometry x="670" width="430" height="30" as="geometry" /></mxCell>
        <mxCell id="row17" value="" style="shape=tableRow;horizontal=0;fillColor=#E6F3FF;strokeColor=#000000;" parent="kanbanTaskTable" vertex="1"><mxGeometry y="520" width="1100" height="30" as="geometry" /></mxCell>
        <mxCell id="r17c1" value="riskClass" style="shape=partialRectangle;connectable=0;fillColor=#E6F3FF;align=left;" parent="row17" vertex="1"><mxGeometry width="160" height="30" as="geometry" /></mxCell>
        <mxCell id="r17c2" value="String" style="shape=partialRectangle;connectable=0;fillColor=#E6F3FF;align=left;" parent="row17" vertex="1"><mxGeometry x="160" width="120" height="30" as="geometry" /></mxCell>
        <mxCell id="r17c3" value="" style="shape=partialRectangle;connectable=0;fillColor=#E6F3FF;align=left;" parent="row17" vertex="1"><mxGeometry x="280" width="250" height="30" as="geometry" /></mxCell>
        <mxCell id="r17c4" value="''" style="shape=partialRectangle;connectable=0;fillColor=#E6F3FF;align=left;" parent="row17" vertex="1"><mxGeometry x="530" width="140" height="30" as="geometry" /></mxCell>
        <mxCell id="r17c5" value="AI risk class" style="shape=partialRectangle;connectable=0;fillColor=#E6F3FF;align=left;" parent="row17" vertex="1"><mxGeometry x="670" width="430" height="30" as="geometry" /></mxCell>
        <mxCell id="row18" value="" style="shape=tableRow;horizontal=0;fillColor=#ffffff;strokeColor=#000000;" parent="kanbanTaskTable" vertex="1"><mxGeometry y="550" width="1100" height="30" as="geometry" /></mxCell>
        <mxCell id="r18c1" value="createdAt" style="shape=partialRectangle;connectable=0;fillColor=#ffffff;align=left;" parent="row18" vertex="1"><mxGeometry width="160" height="30" as="geometry" /></mxCell>
        <mxCell id="r18c2" value="Date" style="shape=partialRectangle;connectable=0;fillColor=#ffffff;align=left;" parent="row18" vertex="1"><mxGeometry x="160" width="120" height="30" as="geometry" /></mxCell>
        <mxCell id="r18c3" value="" style="shape=partialRectangle;connectable=0;fillColor=#ffffff;align=left;" parent="row18" vertex="1"><mxGeometry x="280" width="250" height="30" as="geometry" /></mxCell>
        <mxCell id="r18c4" value="Tự động" style="shape=partialRectangle;connectable=0;fillColor=#ffffff;align=left;" parent="row18" vertex="1"><mxGeometry x="530" width="140" height="30" as="geometry" /></mxCell>
        <mxCell id="r18c5" value="Ngày tạo" style="shape=partialRectangle;connectable=0;fillColor=#ffffff;align=left;" parent="row18" vertex="1"><mxGeometry x="670" width="430" height="30" as="geometry" /></mxCell>
        <mxCell id="row19" value="" style="shape=tableRow;horizontal=0;fillColor=#E6F3FF;strokeColor=#000000;" parent="kanbanTaskTable" vertex="1"><mxGeometry y="580" width="1100" height="30" as="geometry" /></mxCell>
        <mxCell id="r19c1" value="updatedAt" style="shape=partialRectangle;connectable=0;fillColor=#E6F3FF;align=left;" parent="row19" vertex="1"><mxGeometry width="160" height="30" as="geometry" /></mxCell>
        <mxCell id="r19c2" value="Date" style="shape=partialRectangle;connectable=0;fillColor=#E6F3FF;align=left;" parent="row19" vertex="1"><mxGeometry x="160" width="120" height="30" as="geometry" /></mxCell>
        <mxCell id="r19c3" value="" style="shape=partialRectangle;connectable=0;fillColor=#E6F3FF;align=left;" parent="row19" vertex="1"><mxGeometry x="280" width="250" height="30" as="geometry" /></mxCell>
        <mxCell id="r19c4" value="Tự động" style="shape=partialRectangle;connectable=0;fillColor=#E6F3FF;align=left;" parent="row19" vertex="1"><mxGeometry x="530" width="140" height="30" as="geometry" /></mxCell>
        <mxCell id="r19c5" value="Ngày cập nhật" style="shape=partialRectangle;connectable=0;fillColor=#E6F3FF;align=left;" parent="row19" vertex="1"><mxGeometry x="670" width="430" height="30" as="geometry" /></mxCell>
      </root>
    </mxGraphModel>
  </diagram>
</mxfile>
